<svg xmlns="http://www.w3.org/2000/svg" viewBox="0 0 96 96" role="img" aria-label="Windows Spotlight Sync">
  <defs>
    <linearGradient id="sky" x1="0" y1="0" x2="0" y2="1">
      <stop offset="0" stop-color="#1e2f63"/>
      <stop offset=".46" stop-color="#5b8cd0"/>
      <stop offset=".72" stop-color="#ffc082"/>
      <stop offset="1" stop-color="#ff9a5f"/>
    </linearGradient>
    <linearGradient id="water" x1="0" y1="0" x2="0" y2="1">
      <stop offset="0" stop-color="#6a97d6"/>
      <stop offset="1" stop-color="#33598f"/>
    </linearGradient>
    <clipPath id="tile"><rect width="96" height="96" rx="22"/></clipPath>
  </defs>
  <g clip-path="url(#tile)">
    <rect width="96" height="96" fill="url(#sky)"/>
    <circle cx="64" cy="29" r="12" fill="#ffe6bd"/>
    <circle cx="60" cy="25" r="4.5" fill="#fff3df"/>
    <path d="M-2 74 L24 44 L42 62 L62 40 L84 62 L98 54 L98 98 L-2 98 Z" fill="#31517f"/>
    <path d="M-2 84 L34 40 L58 70 L76 54 L98 72 L98 98 L-2 98 Z" fill="#15223e"/>
    <path d="M34 40 L27 51 L41 51 Z" fill="#eef3ff"/>
    <rect x="-2" y="80" width="100" height="20" fill="url(#water)"/>
    <g fill="#ffe6bd" opacity=".55">
      <rect x="58" y="84" width="12" height="2.4" rx="1.2"/>
      <rect x="61" y="89" width="6" height="2.2" rx="1.1"/>
      <rect x="59" y="93.5" width="10" height="2.2" rx="1.1"/>
    </g>
  </g>
</svg>
